<svg width="540" height="316" viewBox="0 0 540 316" fill="none" xmlns="http://www.w3.org/2000/svg" role="img" aria-labelledby="title desc">
  <title id="title">Top languages</title>
  <desc id="desc">Top programming languages used across public repositories.</desc>
  <defs>
    <linearGradient id="card-gradient" x1="0" y1="0" x2="1" y2="1">
      <stop offset="0%" stop-color="#ffffff"/>
      <stop offset="100%" stop-color="#f8fafc"/>
    </linearGradient>
    <linearGradient id="language-gradient" x1="0" y1="0" x2="1" y2="0">
    <stop offset="0.0000%" stop-color="#3178c6"/>
    <stop offset="35.9671%" stop-color="#3178c6"/>
    <stop offset="35.9671%" stop-color="#f1e05a"/>
    <stop offset="57.9027%" stop-color="#f1e05a"/>
    <stop offset="57.9027%" stop-color="#3572A5"/>
    <stop offset="76.0707%" stop-color="#3572A5"/>
    <stop offset="76.0707%" stop-color="#e34c26"/>
    <stop offset="93.0294%" stop-color="#e34c26"/>
    <stop offset="93.0294%" stop-color="#563d7c"/>
    <stop offset="96.7891%" stop-color="#563d7c"/>
    <stop offset="96.7891%" stop-color="#89e051"/>
    <stop offset="99.3548%" stop-color="#89e051"/>
    </linearGradient>
  </defs>
  <rect x="0.5" y="0.5" width="539" height="315" rx="14" fill="url(#card-gradient)" stroke="#e5e7eb"/>
  <text x="28" y="38" fill="#0f172a" font-family="Segoe UI, Arial, sans-serif" font-size="20" font-weight="700">Top languages</text>
  <rect x="28" y="56" width="484" height="11" rx="5.5" fill="url(#language-gradient)"/>
  <circle cx="34" cy="101" r="6" fill="#3178c6"/>
  <text x="58" y="106" fill="#0f172a" font-family="Segoe UI, Arial, sans-serif" font-size="14" font-weight="650">Makefile</text>
  <rect x="232" y="94" width="210" height="13" rx="6.5" fill="#e8edf3"/>
  <rect x="232" y="94" width="75.53" height="13" rx="6.5" fill="#3178c6"/>
  <text x="512" y="106" fill="#334155" font-family="Segoe UI, Arial, sans-serif" font-size="13" text-anchor="end">36.0%</text>
  <circle cx="34" cy="135" r="6" fill="#f1e05a"/>
  <text x="58" y="140" fill="#0f172a" font-family="Segoe UI, Arial, sans-serif" font-size="14" font-weight="650">CMake</text>
  <rect x="232" y="128" width="210" height="13" rx="6.5" fill="#e8edf3"/>
  <rect x="232" y="128" width="46.06" height="13" rx="6.5" fill="#f1e05a"/>
  <text x="512" y="140" fill="#334155" font-family="Segoe UI, Arial, sans-serif" font-size="13" text-anchor="end">21.9%</text>
  <circle cx="34" cy="169" r="6" fill="#3572A5"/>
  <text x="58" y="174" fill="#0f172a" font-family="Segoe UI, Arial, sans-serif" font-size="14" font-weight="650">C</text>
  <rect x="232" y="162" width="210" height="13" rx="6.5" fill="#e8edf3"/>
  <rect x="232" y="162" width="38.15" height="13" rx="6.5" fill="#3572A5"/>
  <text x="512" y="174" fill="#334155" font-family="Segoe UI, Arial, sans-serif" font-size="13" text-anchor="end">18.2%</text>
  <circle cx="34" cy="203" r="6" fill="#e34c26"/>
  <text x="58" y="208" fill="#0f172a" font-family="Segoe UI, Arial, sans-serif" font-size="14" font-weight="650">C++</text>
  <rect x="232" y="196" width="210" height="13" rx="6.5" fill="#e8edf3"/>
  <rect x="232" y="196" width="35.61" height="13" rx="6.5" fill="#e34c26"/>
  <text x="512" y="208" fill="#334155" font-family="Segoe UI, Arial, sans-serif" font-size="13" text-anchor="end">17.0%</text>
  <circle cx="34" cy="237" r="6" fill="#563d7c"/>
  <text x="58" y="242" fill="#0f172a" font-family="Segoe UI, Arial, sans-serif" font-size="14" font-weight="650">Python</text>
  <rect x="232" y="230" width="210" height="13" rx="6.5" fill="#e8edf3"/>
  <rect x="232" y="230" width="7.9" height="13" rx="6.5" fill="#563d7c"/>
  <text x="512" y="242" fill="#334155" font-family="Segoe UI, Arial, sans-serif" font-size="13" text-anchor="end">3.76%</text>
  <circle cx="34" cy="271" r="6" fill="#89e051"/>
  <text x="58" y="276" fill="#0f172a" font-family="Segoe UI, Arial, sans-serif" font-size="14" font-weight="650">Shell</text>
  <rect x="232" y="264" width="210" height="13" rx="6.5" fill="#e8edf3"/>
  <rect x="232" y="264" width="5.39" height="13" rx="6.5" fill="#89e051"/>
  <text x="512" y="276" fill="#334155" font-family="Segoe UI, Arial, sans-serif" font-size="13" text-anchor="end">2.57%</text>
</svg>
